<?xml version="1.0" standalone="no"?><!DOCTYPE svg PUBLIC "-//W3C//DTD SVG 1.1//EN" "http://www.w3.org/Graphics/SVG/1.1/DTD/svg11.dtd"><svg t="1680940796918" class="icon" viewBox="0 0 1024 1024" version="1.1" xmlns="http://www.w3.org/2000/svg" p-id="2723" data-spm-anchor-id="a313x.7781069.0.i1" width="200" height="200" xmlns:xlink="http://www.w3.org/1999/xlink"><path d="M82.944 49.499119c-13.676475 0-24.766915 11.090441-24.766915 24.766915V734.329492c0 13.676475 11.090441 24.766915 24.766915 24.766915H941.038644c13.676475 0 24.766915-11.090441 24.766915-24.766915V74.28339c0-13.676475-11.090441-24.766915-24.766915-24.766915H82.961356z m0-49.499119H941.038644A74.266034 74.266034 0 0 1 1015.322034 74.266034V734.329492a74.266034 74.266034 0 0 1-74.266034 74.283389H82.961356A74.266034 74.266034 0 0 1 8.677966 734.329492V74.28339A74.266034 74.266034 0 0 1 82.944 0z" fill="#6366f1" p-id="2724" data-spm-anchor-id="a313x.7781069.0.i2" class=""></path><path d="M182.237288 971.932203m26.033898 0l607.457628 0q26.033898 0 26.033898 26.033899l0 0q0 26.033898-26.033898 26.033898l-607.457628 0q-26.033898 0-26.033898-26.033898l0 0q0-26.033898 26.033898-26.033899Z" fill="#f472b6" p-id="2725" data-spm-anchor-id="a313x.7781069.0.i10" class=""></path></svg>